<mxfile host="app.diagrams.net" modified="2023-12-11T17:09:36.871Z" agent="Mozilla/5.0 (Windows NT 10.0; Win64; x64) AppleWebKit/537.36 (KHTML, like Gecko) Chrome/118.0.0.0 Safari/537.36 OPR/104.0.0.0" etag="y6SdNSFHA3C_3JhK0_AC" version="22.1.7" type="device">
  <diagram name="Страница 1" id="YW91PB4rHEMt5rg3uFnZ">
    <mxGraphModel dx="1249" dy="581" grid="1" gridSize="10" guides="1" tooltips="1" connect="1" arrows="1" fold="1" page="1" pageScale="1" pageWidth="827" pageHeight="1169" math="0" shadow="0">
      <root>
        <mxCell id="0" />
        <mxCell id="1" parent="0" />
        <mxCell id="c2hw_XhxiZxsvKRolTbk-1" value="" style="ellipse;whiteSpace=wrap;html=1;rounded=0;shadow=0;comic=0;labelBackgroundColor=none;strokeWidth=1;fillColor=#000000;fontFamily=Verdana;fontSize=12;align=center;" parent="1" vertex="1">
          <mxGeometry x="380" y="28" width="40" height="40" as="geometry" />
        </mxCell>
        <mxCell id="c2hw_XhxiZxsvKRolTbk-3" value="Ввод a" style="rounded=1;whiteSpace=wrap;html=1;arcSize=50;" parent="1" vertex="1">
          <mxGeometry x="355" y="90" width="90" height="30" as="geometry" />
        </mxCell>
        <mxCell id="c2hw_XhxiZxsvKRolTbk-8" value="a &amp;lt; 0" style="edgeStyle=orthogonalEdgeStyle;rounded=0;orthogonalLoop=1;jettySize=auto;html=1;entryX=0.5;entryY=0;entryDx=0;entryDy=0;labelPosition=left;verticalLabelPosition=top;align=right;verticalAlign=bottom;fontSize=15;exitX=0;exitY=0.5;exitDx=0;exitDy=0;" parent="1" source="c2hw_XhxiZxsvKRolTbk-4" target="c2hw_XhxiZxsvKRolTbk-7" edge="1">
          <mxGeometry relative="1" as="geometry">
            <mxPoint x="377.5" y="159" as="sourcePoint" />
            <mxPoint x="310" y="239" as="targetPoint" />
          </mxGeometry>
        </mxCell>
        <mxCell id="c2hw_XhxiZxsvKRolTbk-4" value="" style="rhombus;whiteSpace=wrap;html=1;" parent="1" vertex="1">
          <mxGeometry x="380" y="140" width="40" height="40" as="geometry" />
        </mxCell>
        <mxCell id="c2hw_XhxiZxsvKRolTbk-5" value="" style="endArrow=classic;html=1;rounded=0;exitX=0.5;exitY=1;exitDx=0;exitDy=0;entryX=0.5;entryY=0;entryDx=0;entryDy=0;" parent="1" source="c2hw_XhxiZxsvKRolTbk-1" target="c2hw_XhxiZxsvKRolTbk-3" edge="1">
          <mxGeometry width="50" height="50" relative="1" as="geometry">
            <mxPoint x="390" y="330" as="sourcePoint" />
            <mxPoint x="440" y="280" as="targetPoint" />
          </mxGeometry>
        </mxCell>
        <mxCell id="c2hw_XhxiZxsvKRolTbk-6" value="" style="endArrow=classic;html=1;rounded=0;entryX=0.5;entryY=0;entryDx=0;entryDy=0;exitX=0.5;exitY=1;exitDx=0;exitDy=0;" parent="1" source="c2hw_XhxiZxsvKRolTbk-3" target="c2hw_XhxiZxsvKRolTbk-4" edge="1">
          <mxGeometry width="50" height="50" relative="1" as="geometry">
            <mxPoint x="290" y="250" as="sourcePoint" />
            <mxPoint x="340" y="200" as="targetPoint" />
          </mxGeometry>
        </mxCell>
        <mxCell id="B_57LP6_vWmh73mgXI6N-3" style="edgeStyle=orthogonalEdgeStyle;rounded=0;orthogonalLoop=1;jettySize=auto;html=1;entryX=0.5;entryY=0;entryDx=0;entryDy=0;" parent="1" source="c2hw_XhxiZxsvKRolTbk-7" target="c2hw_XhxiZxsvKRolTbk-35" edge="1">
          <mxGeometry relative="1" as="geometry">
            <Array as="points">
              <mxPoint x="324" y="710" />
              <mxPoint x="500" y="710" />
            </Array>
          </mxGeometry>
        </mxCell>
        <mxCell id="c2hw_XhxiZxsvKRolTbk-7" value="Вывод &quot;Неверное значение&quot;" style="rounded=1;whiteSpace=wrap;html=1;arcSize=50;" parent="1" vertex="1">
          <mxGeometry x="279" y="240" width="90" height="50" as="geometry" />
        </mxCell>
        <mxCell id="c2hw_XhxiZxsvKRolTbk-9" value="a &amp;gt; 0" style="edgeStyle=orthogonalEdgeStyle;rounded=0;orthogonalLoop=1;jettySize=auto;html=1;labelPosition=right;verticalLabelPosition=top;align=left;verticalAlign=bottom;fontSize=15;exitX=1;exitY=0.5;exitDx=0;exitDy=0;" parent="1" source="c2hw_XhxiZxsvKRolTbk-4" edge="1">
          <mxGeometry relative="1" as="geometry">
            <mxPoint x="562.5" y="259" as="sourcePoint" />
            <mxPoint x="495" y="200" as="targetPoint" />
          </mxGeometry>
        </mxCell>
        <mxCell id="c2hw_XhxiZxsvKRolTbk-13" value="" style="edgeStyle=orthogonalEdgeStyle;rounded=0;orthogonalLoop=1;jettySize=auto;html=1;" parent="1" source="c2hw_XhxiZxsvKRolTbk-10" target="c2hw_XhxiZxsvKRolTbk-12" edge="1">
          <mxGeometry relative="1" as="geometry" />
        </mxCell>
        <mxCell id="c2hw_XhxiZxsvKRolTbk-10" value="x := 1" style="rounded=1;whiteSpace=wrap;html=1;arcSize=50;" parent="1" vertex="1">
          <mxGeometry x="450" y="197" width="90" height="29" as="geometry" />
        </mxCell>
        <mxCell id="c2hw_XhxiZxsvKRolTbk-15" value="" style="edgeStyle=orthogonalEdgeStyle;rounded=0;orthogonalLoop=1;jettySize=auto;html=1;" parent="1" source="c2hw_XhxiZxsvKRolTbk-12" target="c2hw_XhxiZxsvKRolTbk-14" edge="1">
          <mxGeometry relative="1" as="geometry" />
        </mxCell>
        <mxCell id="c2hw_XhxiZxsvKRolTbk-12" value="eps := 10^(-10)" style="rounded=1;whiteSpace=wrap;html=1;arcSize=50;" parent="1" vertex="1">
          <mxGeometry x="450" y="250.5" width="90" height="29" as="geometry" />
        </mxCell>
        <mxCell id="c2hw_XhxiZxsvKRolTbk-22" value="" style="edgeStyle=orthogonalEdgeStyle;rounded=0;orthogonalLoop=1;jettySize=auto;html=1;" parent="1" source="c2hw_XhxiZxsvKRolTbk-14" target="c2hw_XhxiZxsvKRolTbk-16" edge="1">
          <mxGeometry relative="1" as="geometry" />
        </mxCell>
        <mxCell id="c2hw_XhxiZxsvKRolTbk-14" value="" style="rhombus;whiteSpace=wrap;html=1;" parent="1" vertex="1">
          <mxGeometry x="475" y="300" width="40" height="40" as="geometry" />
        </mxCell>
        <mxCell id="c2hw_XhxiZxsvKRolTbk-31" value="False" style="edgeStyle=orthogonalEdgeStyle;rounded=0;orthogonalLoop=1;jettySize=auto;html=1;entryX=0.5;entryY=0;entryDx=0;entryDy=0;labelPosition=center;verticalLabelPosition=top;align=center;verticalAlign=bottom;fontSize=15;" parent="1" source="c2hw_XhxiZxsvKRolTbk-16" target="c2hw_XhxiZxsvKRolTbk-21" edge="1">
          <mxGeometry relative="1" as="geometry">
            <Array as="points">
              <mxPoint x="590" y="380" />
              <mxPoint x="590" y="670" />
            </Array>
          </mxGeometry>
        </mxCell>
        <mxCell id="c2hw_XhxiZxsvKRolTbk-16" value="" style="rhombus;whiteSpace=wrap;html=1;" parent="1" vertex="1">
          <mxGeometry x="475" y="360" width="40" height="40" as="geometry" />
        </mxCell>
        <mxCell id="c2hw_XhxiZxsvKRolTbk-24" value="" style="edgeStyle=orthogonalEdgeStyle;rounded=0;orthogonalLoop=1;jettySize=auto;html=1;" parent="1" source="c2hw_XhxiZxsvKRolTbk-17" target="c2hw_XhxiZxsvKRolTbk-19" edge="1">
          <mxGeometry relative="1" as="geometry" />
        </mxCell>
        <mxCell id="c2hw_XhxiZxsvKRolTbk-17" value="xp := x" style="rounded=1;whiteSpace=wrap;html=1;arcSize=50;" parent="1" vertex="1">
          <mxGeometry x="450" y="420" width="90" height="29" as="geometry" />
        </mxCell>
        <mxCell id="c2hw_XhxiZxsvKRolTbk-25" value="" style="edgeStyle=orthogonalEdgeStyle;rounded=0;orthogonalLoop=1;jettySize=auto;html=1;" parent="1" source="c2hw_XhxiZxsvKRolTbk-19" target="c2hw_XhxiZxsvKRolTbk-20" edge="1">
          <mxGeometry relative="1" as="geometry" />
        </mxCell>
        <mxCell id="c2hw_XhxiZxsvKRolTbk-19" value="x := (x + a/x) / 2" style="rounded=1;whiteSpace=wrap;html=1;arcSize=50;" parent="1" vertex="1">
          <mxGeometry x="450" y="470" width="90" height="39" as="geometry" />
        </mxCell>
        <mxCell id="c2hw_XhxiZxsvKRolTbk-30" value="|x - xp| &amp;lt; eps" style="edgeStyle=orthogonalEdgeStyle;rounded=0;orthogonalLoop=1;jettySize=auto;html=1;labelPosition=left;verticalLabelPosition=middle;align=right;verticalAlign=middle;fontSize=15;" parent="1" source="c2hw_XhxiZxsvKRolTbk-20" target="c2hw_XhxiZxsvKRolTbk-28" edge="1">
          <mxGeometry relative="1" as="geometry" />
        </mxCell>
        <mxCell id="c2hw_XhxiZxsvKRolTbk-33" value="else" style="edgeStyle=orthogonalEdgeStyle;rounded=0;orthogonalLoop=1;jettySize=auto;html=1;entryX=0;entryY=0.5;entryDx=0;entryDy=0;labelPosition=center;verticalLabelPosition=top;align=center;verticalAlign=bottom;fontSize=15;" parent="1" source="c2hw_XhxiZxsvKRolTbk-20" target="c2hw_XhxiZxsvKRolTbk-14" edge="1">
          <mxGeometry x="-0.959" relative="1" as="geometry">
            <Array as="points">
              <mxPoint x="560" y="549" />
              <mxPoint x="560" y="640" />
              <mxPoint x="400" y="640" />
              <mxPoint x="400" y="320" />
            </Array>
            <mxPoint as="offset" />
          </mxGeometry>
        </mxCell>
        <mxCell id="c2hw_XhxiZxsvKRolTbk-20" value="" style="rhombus;whiteSpace=wrap;html=1;" parent="1" vertex="1">
          <mxGeometry x="475" y="529" width="40" height="40" as="geometry" />
        </mxCell>
        <mxCell id="c2hw_XhxiZxsvKRolTbk-36" value="" style="edgeStyle=orthogonalEdgeStyle;rounded=0;orthogonalLoop=1;jettySize=auto;html=1;exitX=0.5;exitY=1;exitDx=0;exitDy=0;" parent="1" source="c2hw_XhxiZxsvKRolTbk-21" target="c2hw_XhxiZxsvKRolTbk-35" edge="1">
          <mxGeometry relative="1" as="geometry">
            <Array as="points">
              <mxPoint x="591" y="710" />
              <mxPoint x="500" y="710" />
            </Array>
          </mxGeometry>
        </mxCell>
        <mxCell id="c2hw_XhxiZxsvKRolTbk-21" value="Вывод x" style="rounded=1;whiteSpace=wrap;html=1;arcSize=50;" parent="1" vertex="1">
          <mxGeometry x="546" y="670" width="90" height="30" as="geometry" />
        </mxCell>
        <mxCell id="c2hw_XhxiZxsvKRolTbk-23" value="True" style="edgeStyle=orthogonalEdgeStyle;rounded=0;orthogonalLoop=1;jettySize=auto;html=1;entryX=0.5;entryY=0;entryDx=0;entryDy=0;labelPosition=left;verticalLabelPosition=middle;align=right;verticalAlign=middle;fontSize=15;exitX=0.5;exitY=1;exitDx=0;exitDy=0;" parent="1" source="c2hw_XhxiZxsvKRolTbk-16" target="c2hw_XhxiZxsvKRolTbk-17" edge="1">
          <mxGeometry relative="1" as="geometry">
            <mxPoint x="540" y="445.5" as="sourcePoint" />
            <mxPoint x="470" y="524.5" as="targetPoint" />
          </mxGeometry>
        </mxCell>
        <mxCell id="c2hw_XhxiZxsvKRolTbk-34" style="edgeStyle=orthogonalEdgeStyle;rounded=0;orthogonalLoop=1;jettySize=auto;html=1;entryX=0.5;entryY=0;entryDx=0;entryDy=0;exitX=0.5;exitY=1;exitDx=0;exitDy=0;" parent="1" source="c2hw_XhxiZxsvKRolTbk-28" target="c2hw_XhxiZxsvKRolTbk-21" edge="1">
          <mxGeometry relative="1" as="geometry">
            <Array as="points">
              <mxPoint x="495" y="650" />
              <mxPoint x="591" y="650" />
            </Array>
          </mxGeometry>
        </mxCell>
        <mxCell id="c2hw_XhxiZxsvKRolTbk-28" value="break" style="rounded=1;whiteSpace=wrap;html=1;arcSize=50;" parent="1" vertex="1">
          <mxGeometry x="450" y="595" width="90" height="30" as="geometry" />
        </mxCell>
        <mxCell id="c2hw_XhxiZxsvKRolTbk-35" value="" style="ellipse;html=1;shape=endState;fillColor=#000000;strokeColor=#000000;" parent="1" vertex="1">
          <mxGeometry x="485" y="722" width="30" height="30" as="geometry" />
        </mxCell>
      </root>
    </mxGraphModel>
  </diagram>
</mxfile>
